<svg xmlns="http://www.w3.org/2000/svg" viewBox="0 0 579.35 146.41"><defs><style>.cls-1{fill:#2989e2;}</style></defs><title>Fichier 2</title><g id="Calque_2" data-name="Calque 2"><g id="Calque_1-2" data-name="Calque 1"><path d="M150.23,101.06V89.53H194q16.49,0,16.49-13.41v-8.8q0-11.67-15.42-11.67H177.3q-28.14,0-28.14-22.64V25.23Q149.16,0,178.73,0h41.41V11.53H178.73q-15.58,0-15.59,13.7V33q0,12,15.41,12H196.3q28.14,0,28.14,22.34v8.8q0,24.94-30.47,24.94Z"/><path class="cls-1" d="M299.73,101.06l-6.64-20H251l-6.27,20H230.89L264.24,0h16.13l34.41,101.06ZM271.94,15.57,254,71.5h36Z"/><path d="M385.41,101.06l-47-80v80H325.72V0h15L386.3,77V0h12.55V101.06Z"/><path d="M415.7,101.06V0H458q33,0,33,27.54v46q0,27.54-33.7,27.54Zm61.12-73.52q0-16-18.82-16H429.68v78h28q19.19,0,19.18-16Z"/><path d="M530.24,101.06V54.49L495.64,0h15.24l27.06,42.38L565.19,0h14.16L544.22,54.49v46.57Z"/><path d="M87.68,146.41l-2-4.81H73.28l-1.86,4.81H67.35l9.84-24.25H82l10.16,24.25Zm-8.21-20.52-5.29,13.43H84.82Z"/><path d="M135.11,146.41q-8.9,0-8.89-5.91V122.16h4.13V140.5q0,3.13,4.66,3.14h5.24q4.6,0,4.6-3.14V122.16H149V140.5q0,5.91-8.89,5.91Z"/><path d="M186.09,146.41V122.16h12.5q9.74,0,9.74,6.61v11q0,6.62-10,6.61Zm18.06-17.64q0-3.84-5.56-3.84h-8.37v18.71h8.26q5.67,0,5.67-3.84Z"/><path d="M245.6,146.41V122.16h4.13v24.25Z"/><path d="M294,146.41V124.93h-8.2v-2.77h20.64v2.77h-8.31v21.48Z"/><path d="M391.35,146.41V124.93h-8.21v-2.77h20.65v2.77h-8.31v21.48Z"/><path class="cls-1" d="M446.51,146.41c-2.71,0-4.7-.48-5.95-1.45a4.66,4.66,0,0,1-1.88-3.88V127.52a4.69,4.69,0,0,1,1.88-3.91c1.25-1,3.24-1.45,5.95-1.45h7.58c2.71,0,4.7.48,6,1.45a4.69,4.69,0,0,1,1.88,3.91v13.56A4.66,4.66,0,0,1,460,145c-1.25,1-3.24,1.45-6,1.45Zm11.28-18.89a2.23,2.23,0,0,0-.93-1.9,4.6,4.6,0,0,0-2.77-.69h-7.58a4.6,4.6,0,0,0-2.77.69,2.23,2.23,0,0,0-.93,1.9v13.53a2.23,2.23,0,0,0,.93,1.9,4.6,4.6,0,0,0,2.77.69h7.58a4.6,4.6,0,0,0,2.77-.69,2.23,2.23,0,0,0,.93-1.9Z"/><path d="M506.5,146.41q-4.08,0-6-1.45a4.66,4.66,0,0,1-1.88-3.88V127.52a4.69,4.69,0,0,1,1.88-3.91q1.88-1.45,6-1.45h7.57q4.08,0,5.95,1.45a4.67,4.67,0,0,1,1.88,3.91v13.56A4.64,4.64,0,0,1,520,145q-1.87,1.46-5.95,1.45Zm11.27-18.89a2.22,2.22,0,0,0-.92-1.9,4.65,4.65,0,0,0-2.78-.69H506.5a4.63,4.63,0,0,0-2.78.69,2.23,2.23,0,0,0-.93,1.9v13.53a2.23,2.23,0,0,0,.93,1.9,4.63,4.63,0,0,0,2.78.69h7.57a4.65,4.65,0,0,0,2.78-.69,2.22,2.22,0,0,0,.92-1.9Z"/><path d="M558.91,146.41V122.16H563v21.48h12.44v2.77Z"/><path class="cls-1" d="M1.5,3.44c12.3-.07,24.59.16,36.88.26a1.5,1.5,0,0,0,0-3C26.09.6,13.8.37,1.5.44a1.5,1.5,0,0,0,0,3Z"/><path class="cls-1" d="M2.15,38.61l44.38.27a1.5,1.5,0,0,0,0-3L2.15,35.61a1.5,1.5,0,0,0,0,3Z"/><path class="cls-1" d="M46.25,19.82,46,54.3a1.5,1.5,0,0,0,3,0l.24-34.48a1.5,1.5,0,0,0-3,0Z"/><path class="cls-1" d="M47.8,20.91l37,.23a1.5,1.5,0,0,0,0-3l-37-.23a1.5,1.5,0,0,0,0,3Z"/><path class="cls-1" d="M47.81,39.43l29.59.18a1.5,1.5,0,0,0,0-3l-29.59-.18a1.5,1.5,0,0,0,0,3Z"/><path class="cls-1" d="M47.5,56.54l50.71.32a1.5,1.5,0,0,0,0-3L47.5,53.54a1.5,1.5,0,0,0,0,3Z"/><path class="cls-1" d="M98,41.71,97.8,68.65a1.5,1.5,0,0,0,3,0L101,41.71a1.5,1.5,0,0,0-3,0Z"/><path class="cls-1" d="M99.41,70.16l30.64.19a1.5,1.5,0,0,0,0-3l-30.64-.19a1.5,1.5,0,0,0,0,3Z"/><path class="cls-1" d="M99.58,43.22l29.59.18a1.5,1.5,0,0,0,0-3l-29.59-.18a1.5,1.5,0,0,0,0,3Z"/><path class="cls-1" d="M2.19,96.48l50.72.32a1.5,1.5,0,0,0,0-3L2.19,93.48a1.5,1.5,0,0,0,0,3Z"/><path class="cls-1" d="M51.6,81.3l-.18,26.93a1.5,1.5,0,0,0,3,0L54.6,81.3a1.5,1.5,0,0,0-3,0Z"/><path class="cls-1" d="M53.24,109.74l44.38.28a1.5,1.5,0,0,0,0-3l-44.38-.28a1.5,1.5,0,0,0,0,3Z"/><path class="cls-1" d="M53.1,82.42l42.27.27a1.5,1.5,0,0,0,0-3L53.1,79.42a1.5,1.5,0,0,0,0,3Z"/><path class="cls-1" d="M1.53,142.6l23.24.15a1.5,1.5,0,0,0,0-3L1.53,139.6a1.5,1.5,0,0,0,0,3Z"/><path class="cls-1" d="M0,2,.08,140.43a1.5,1.5,0,0,0,3,0L3,2A1.5,1.5,0,0,0,0,2Z"/></g></g></svg>