<?xml version="1.0" encoding="utf-8"?>
<!-- Generator: Adobe Illustrator 23.0.1, SVG Export Plug-In . SVG Version: 6.00 Build 0)  -->
<svg version="1.1" id="Calque_1" xmlns="http://www.w3.org/2000/svg" xmlns:xlink="http://www.w3.org/1999/xlink" x="0px" y="0px"
	 viewBox="0 0 1920 1080" style="enable-background:new 0 0 1920 1080;" xml:space="preserve">
<style type="text/css">
	.st0{fill:#2989E2;}
</style>
<g>
	<path d="M647.73,428.27v-11.53h43.74c10.99,0,16.49-4.47,16.49-13.41v-8.79c0-7.78-5.14-11.68-15.42-11.68H674.8
		c-18.76,0-28.14-7.54-28.14-22.63v-7.79c0-16.82,9.86-25.23,29.58-25.23h41.41v11.53h-41.41c-10.4,0-15.59,4.57-15.59,13.7v7.79
		c0,7.98,5.14,11.97,15.42,11.97h17.75c18.76,0,28.14,7.45,28.14,22.35v8.79c0,16.63-10.16,24.94-30.47,24.94H647.73z"/>
	<path class="st0" d="M797.23,428.27l-6.63-20.04h-42.12l-6.27,20.04h-13.8l33.34-101.06h16.13l34.42,101.06H797.23z M769.44,342.78
		l-17.92,55.94h36.03L769.44,342.78z"/>
	<path d="M882.91,428.27l-46.96-80.01v80.01h-12.73V327.21h15.06l45.53,76.98v-76.98h12.55v101.06H882.91z"/>
	<path d="M913.2,428.27V327.21h42.3c21.99,0,32.98,9.18,32.98,27.54v45.99c0,18.36-11.23,27.54-33.7,27.54H913.2z M974.32,354.75
		c0-10.67-6.27-16-18.82-16h-28.32v77.99h27.96c12.79,0,19.18-5.33,19.18-16V354.75z"/>
	<path d="M1027.74,428.27v-46.56l-34.59-54.49h15.24l27.07,42.38l27.25-42.38h14.16l-35.13,54.49v46.56H1027.74z"/>
</g>
<g>
	<path d="M585.18,473.62l-1.96-4.81h-12.44l-1.85,4.81h-4.08l9.85-24.25h4.76l10.17,24.25H585.18z M576.97,453.11l-5.29,13.42h10.64
		L576.97,453.11z"/>
	<path d="M632.61,473.62c-5.93,0-8.89-1.97-8.89-5.92v-18.34h4.13v18.34c0,2.1,1.55,3.15,4.66,3.15h5.24c3.07,0,4.61-1.05,4.61-3.15
		v-18.34h4.13v18.34c0,3.94-2.96,5.92-8.89,5.92H632.61z"/>
	<path d="M683.6,473.62v-24.25h12.49c6.49,0,9.74,2.2,9.74,6.61v11.04c0,4.41-3.32,6.61-9.95,6.61H683.6z M701.65,455.98
		c0-2.56-1.85-3.84-5.56-3.84h-8.36v18.72h8.26c3.78,0,5.67-1.28,5.67-3.84V455.98z"/>
	<path d="M743.1,473.62v-24.25h4.13v24.25H743.1z"/>
	<path d="M791.54,473.62v-21.49h-8.21v-2.77h20.65v2.77h-8.31v21.49H791.54z"/>
	<path d="M888.85,473.62v-21.49h-8.21v-2.77h20.65v2.77h-8.31v21.49H888.85z"/>
	<path class="st0" d="M944.02,473.62c-2.72,0-4.7-0.48-5.96-1.45c-1.25-0.97-1.88-2.26-1.88-3.88v-13.56c0-1.64,0.63-2.94,1.88-3.91
		c1.25-0.97,3.24-1.45,5.96-1.45h7.57c2.72,0,4.7,0.48,5.96,1.45c1.25,0.97,1.88,2.27,1.88,3.91v13.56c0,1.61-0.63,2.91-1.88,3.88
		c-1.25,0.97-3.24,1.45-5.96,1.45H944.02z M955.29,454.73c0-0.81-0.31-1.44-0.93-1.9c-0.62-0.46-1.54-0.69-2.78-0.69h-7.57
		c-1.24,0-2.16,0.23-2.78,0.69c-0.62,0.46-0.93,1.1-0.93,1.9v13.53c0,0.81,0.31,1.44,0.93,1.9c0.62,0.46,1.54,0.69,2.78,0.69h7.57
		c1.23,0,2.16-0.23,2.78-0.69c0.62-0.46,0.93-1.1,0.93-1.9V454.73z"/>
	<path d="M1004,473.62c-2.72,0-4.7-0.48-5.96-1.45c-1.25-0.97-1.88-2.26-1.88-3.88v-13.56c0-1.64,0.63-2.94,1.88-3.91
		c1.25-0.97,3.24-1.45,5.96-1.45h7.57c2.72,0,4.7,0.48,5.96,1.45s1.88,2.27,1.88,3.91v13.56c0,1.61-0.63,2.91-1.88,3.88
		s-3.24,1.45-5.96,1.45H1004z M1015.28,454.73c0-0.81-0.31-1.44-0.93-1.9s-1.54-0.69-2.78-0.69H1004c-1.24,0-2.16,0.23-2.78,0.69
		c-0.62,0.46-0.93,1.1-0.93,1.9v13.53c0,0.81,0.31,1.44,0.93,1.9c0.62,0.46,1.54,0.69,2.78,0.69h7.57c1.24,0,2.16-0.23,2.78-0.69
		c0.62-0.46,0.93-1.1,0.93-1.9V454.73z"/>
	<path d="M1056.41,473.62v-24.25h4.08v21.49h12.44v2.77H1056.41z"/>
</g>
<g>
	<g>
		<g>
			<path class="st0" d="M499,330.65c12.29-0.07,24.59,0.16,36.88,0.25c1.93,0.01,1.93-2.99,0-3c-12.29-0.09-24.59-0.33-36.88-0.25
				C497.07,327.66,497.07,330.66,499,330.65L499,330.65z"/>
		</g>
	</g>
	<g>
		<g>
			<path class="st0" d="M499.65,365.82c14.79,0.09,29.58,0.19,44.37,0.28c1.93,0.01,1.93-2.99,0-3
				c-14.79-0.09-29.58-0.19-44.37-0.28C497.72,362.81,497.72,365.81,499.65,365.82L499.65,365.82z"/>
		</g>
	</g>
	<g>
		<g>
			<path class="st0" d="M543.75,347.03c-0.08,11.49-0.16,22.99-0.23,34.48c-0.01,1.93,2.99,1.93,3,0
				c0.08-11.49,0.16-22.99,0.23-34.48C546.76,345.1,543.76,345.1,543.75,347.03L543.75,347.03z"/>
		</g>
	</g>
	<g>
		<g>
			<path class="st0" d="M545.31,348.12c12.33,0.08,24.65,0.15,36.98,0.23c1.93,0.01,1.93-2.99,0-3
				c-12.33-0.08-24.65-0.15-36.98-0.23C543.37,345.11,543.37,348.11,545.31,348.12L545.31,348.12z"/>
		</g>
	</g>
	<g>
		<g>
			<path class="st0" d="M545.31,366.64c9.86,0.06,19.72,0.12,29.58,0.19c1.93,0.01,1.93-2.99,0-3c-9.86-0.06-19.72-0.12-29.58-0.19
				C543.38,363.63,543.38,366.63,545.31,366.64L545.31,366.64z"/>
		</g>
	</g>
	<g>
		<g>
			<path class="st0" d="M545,383.75c16.9,0.11,33.81,0.21,50.71,0.32c1.93,0.01,1.93-2.99,0-3c-16.9-0.11-33.81-0.21-50.71-0.32
				C543.07,380.74,543.07,383.74,545,383.75L545,383.75z"/>
		</g>
	</g>
	<g>
		<g>
			<path class="st0" d="M595.48,368.92c-0.06,8.98-0.12,17.96-0.18,26.94c-0.01,1.93,2.99,1.93,3,0c0.06-8.98,0.12-17.96,0.18-26.94
				C598.5,366.99,595.5,366.99,595.48,368.92L595.48,368.92z"/>
		</g>
	</g>
	<g>
		<g>
			<path class="st0" d="M596.91,397.37c10.21,0.06,20.43,0.13,30.64,0.19c1.93,0.01,1.93-2.99,0-3
				c-10.21-0.06-20.43-0.13-30.64-0.19C594.98,394.36,594.98,397.36,596.91,397.37L596.91,397.37z"/>
		</g>
	</g>
	<g>
		<g>
			<path class="st0" d="M597.08,370.43c9.86,0.06,19.72,0.12,29.58,0.19c1.93,0.01,1.93-2.99,0-3c-9.86-0.06-19.72-0.12-29.58-0.19
				C595.15,367.42,595.15,370.42,597.08,370.43L597.08,370.43z"/>
		</g>
	</g>
	<g>
		<g>
			<path class="st0" d="M499.69,423.69c16.9,0.11,33.81,0.21,50.71,0.32c1.93,0.01,1.93-2.99,0-3c-16.9-0.11-33.81-0.21-50.71-0.32
				C497.76,420.68,497.76,423.68,499.69,423.69L499.69,423.69z"/>
		</g>
	</g>
	<g>
		<g>
			<path class="st0" d="M549.1,408.51c-0.06,8.98-0.12,17.96-0.18,26.94c-0.01,1.93,2.99,1.93,3,0c0.06-8.98,0.12-17.96,0.18-26.94
				C552.12,406.58,549.12,406.58,549.1,408.51L549.1,408.51z"/>
		</g>
	</g>
	<g>
		<g>
			<path class="st0" d="M550.74,436.95c14.79,0.09,29.58,0.19,44.37,0.28c1.93,0.01,1.93-2.99,0-3
				c-14.79-0.09-29.58-0.19-44.37-0.28C548.81,433.94,548.81,436.94,550.74,436.95L550.74,436.95z"/>
		</g>
	</g>
	<g>
		<g>
			<path class="st0" d="M550.61,409.63c14.09,0.09,28.17,0.18,42.26,0.27c1.93,0.01,1.93-2.99,0-3
				c-14.09-0.09-28.17-0.18-42.26-0.27C548.67,406.62,548.67,409.62,550.61,409.63L550.61,409.63z"/>
		</g>
	</g>
	<g>
		<g>
			<path class="st0" d="M499.03,469.82c7.75,0.05,15.5,0.1,23.24,0.15c1.93,0.01,1.93-2.99,0-3c-7.75-0.05-15.5-0.1-23.24-0.15
				C497.1,466.8,497.1,469.8,499.03,469.82L499.03,469.82z"/>
		</g>
	</g>
	<g>
		<g>
			<path class="st0" d="M497.5,329.26c0.03,46.13,0.06,92.26,0.08,138.38c0,1.93,3,1.93,3,0c-0.03-46.13-0.06-92.26-0.08-138.38
				C500.5,327.33,497.5,327.32,497.5,329.26L497.5,329.26z"/>
		</g>
	</g>
</g>
</svg>
